<?xml version="1.0" encoding="utf-8" ?>
<svg baseProfile="full" height="1536" version="1.1" width="1024" xmlns="http://www.w3.org/2000/svg" xmlns:ev="http://www.w3.org/2001/xml-events" xmlns:xlink="http://www.w3.org/1999/xlink"><path d="M 791,1142 L 790,1143 L 788,1143 L 787,1144 L 786,1144 L 785,1145 L 784,1145 L 780,1149 L 780,1150 L 778,1152 L 778,1153 L 777,1154 L 777,1157 L 776,1158 L 776,1163 L 777,1164 L 777,1168 L 778,1169 L 778,1170 L 779,1171 L 779,1172 L 785,1178 L 786,1178 L 787,1179 L 788,1179 L 789,1180 L 801,1180 L 802,1179 L 803,1179 L 804,1178 L 805,1178 L 810,1173 L 810,1172 L 812,1170 L 812,1168 L 813,1167 L 813,1164 L 814,1163 L 814,1159 L 813,1158 L 813,1155 L 812,1154 L 812,1153 L 811,1152 L 811,1151 L 810,1150 L 810,1149 L 807,1146 L 806,1146 L 804,1144 L 803,1144 L 802,1143 L 800,1143 L 799,1142 Z" fill="black" /><path d="M 424,341 L 423,342 L 417,342 L 416,343 L 413,343 L 412,344 L 410,344 L 409,345 L 407,345 L 406,346 L 405,346 L 404,347 L 403,347 L 402,348 L 401,348 L 399,350 L 398,350 L 389,359 L 389,360 L 387,362 L 387,363 L 386,364 L 386,365 L 385,366 L 385,368 L 384,369 L 384,371 L 383,372 L 383,377 L 382,378 L 382,388 L 383,389 L 383,393 L 384,394 L 384,397 L 385,398 L 385,400 L 386,401 L 386,403 L 387,404 L 387,405 L 388,406 L 388,408 L 389,409 L 389,410 L 390,411 L 390,413 L 391,414 L 391,417 L 392,418 L 392,426 L 391,427 L 391,432 L 390,433 L 390,440 L 389,441 L 389,452 L 388,453 L 388,456 L 387,457 L 387,459 L 386,460 L 386,461 L 385,462 L 385,463 L 384,464 L 384,465 L 382,467 L 382,468 L 380,470 L 380,471 L 378,473 L 378,474 L 374,478 L 374,479 L 370,483 L 370,484 L 368,486 L 368,487 L 367,488 L 367,489 L 366,490 L 366,491 L 365,492 L 365,493 L 364,494 L 364,495 L 363,496 L 363,497 L 362,498 L 362,500 L 361,501 L 361,503 L 360,504 L 360,507 L 359,508 L 359,514 L 358,515 L 358,528 L 359,529 L 359,536 L 360,537 L 360,540 L 361,541 L 361,543 L 362,544 L 362,546 L 363,547 L 363,549 L 364,550 L 364,552 L 365,553 L 365,554 L 366,555 L 366,556 L 367,557 L 367,558 L 368,559 L 368,560 L 370,562 L 370,563 L 372,565 L 372,566 L 374,568 L 374,569 L 379,574 L 379,575 L 388,584 L 388,585 L 395,592 L 395,593 L 399,597 L 399,598 L 404,603 L 404,604 L 407,607 L 407,608 L 411,612 L 411,613 L 415,617 L 415,618 L 418,621 L 418,622 L 423,627 L 423,628 L 426,631 L 426,632 L 430,636 L 430,637 L 435,642 L 435,643 L 439,647 L 439,648 L 444,653 L 444,654 L 448,658 L 448,659 L 454,665 L 454,666 L 458,670 L 458,671 L 459,672 L 459,674 L 458,675 L 458,678 L 457,679 L 457,683 L 456,684 L 456,687 L 455,688 L 455,692 L 454,693 L 454,698 L 453,699 L 453,706 L 452,707 L 452,715 L 451,716 L 451,725 L 450,726 L 450,742 L 449,743 L 449,758 L 448,759 L 448,773 L 447,774 L 447,788 L 446,789 L 446,798 L 445,799 L 445,805 L 444,806 L 444,810 L 443,811 L 443,815 L 442,816 L 442,819 L 441,820 L 441,822 L 440,823 L 440,825 L 439,826 L 439,827 L 438,828 L 438,830 L 437,831 L 437,832 L 436,833 L 436,835 L 435,836 L 435,837 L 434,838 L 434,839 L 433,840 L 433,841 L 432,842 L 432,844 L 431,845 L 431,846 L 430,847 L 430,848 L 429,849 L 429,850 L 428,851 L 428,852 L 427,853 L 427,854 L 426,855 L 426,857 L 425,858 L 425,859 L 424,860 L 424,861 L 423,862 L 423,864 L 422,865 L 422,866 L 421,867 L 421,868 L 420,869 L 420,871 L 419,872 L 419,873 L 418,874 L 418,875 L 417,876 L 417,878 L 416,879 L 416,880 L 415,881 L 415,882 L 414,883 L 414,885 L 413,886 L 413,888 L 412,889 L 412,890 L 411,891 L 411,893 L 410,894 L 410,895 L 409,896 L 409,898 L 408,899 L 408,900 L 407,901 L 407,902 L 406,903 L 406,905 L 405,906 L 405,907 L 403,909 L 403,910 L 401,912 L 401,913 L 399,915 L 399,916 L 398,917 L 398,918 L 397,919 L 397,920 L 396,921 L 396,922 L 395,923 L 395,924 L 394,925 L 394,926 L 393,927 L 393,928 L 392,929 L 392,930 L 391,931 L 391,932 L 390,933 L 390,934 L 389,935 L 389,936 L 388,937 L 388,938 L 387,939 L 387,940 L 386,941 L 386,942 L 385,943 L 385,944 L 384,945 L 384,946 L 383,947 L 383,948 L 382,949 L 382,950 L 381,951 L 381,952 L 380,953 L 380,954 L 379,955 L 379,956 L 378,957 L 378,958 L 377,959 L 377,960 L 376,961 L 376,962 L 375,963 L 375,964 L 374,965 L 374,966 L 373,967 L 373,968 L 372,969 L 372,970 L 371,971 L 371,972 L 370,973 L 370,974 L 369,975 L 369,976 L 368,977 L 368,978 L 367,979 L 367,980 L 366,981 L 366,982 L 365,983 L 365,984 L 364,985 L 364,986 L 363,987 L 363,988 L 362,989 L 362,990 L 361,991 L 361,992 L 360,993 L 360,994 L 359,995 L 359,996 L 358,997 L 358,998 L 357,999 L 357,1000 L 356,1001 L 356,1002 L 355,1003 L 355,1004 L 354,1005 L 354,1006 L 353,1007 L 353,1008 L 352,1009 L 352,1010 L 351,1011 L 351,1012 L 350,1013 L 350,1014 L 349,1015 L 349,1016 L 348,1017 L 348,1018 L 347,1019 L 347,1020 L 346,1021 L 346,1022 L 345,1023 L 345,1024 L 344,1025 L 344,1026 L 343,1027 L 343,1028 L 342,1029 L 342,1030 L 340,1032 L 340,1033 L 339,1034 L 339,1035 L 338,1036 L 338,1037 L 337,1038 L 337,1039 L 336,1040 L 336,1041 L 335,1042 L 335,1043 L 334,1044 L 334,1045 L 333,1046 L 333,1047 L 332,1048 L 332,1049 L 331,1050 L 331,1051 L 329,1053 L 329,1054 L 328,1055 L 328,1056 L 327,1057 L 327,1058 L 326,1059 L 326,1060 L 325,1061 L 325,1062 L 324,1063 L 324,1064 L 322,1066 L 322,1067 L 321,1068 L 321,1069 L 320,1070 L 320,1071 L 319,1072 L 319,1073 L 318,1074 L 318,1075 L 317,1076 L 317,1077 L 315,1079 L 315,1080 L 314,1081 L 314,1082 L 313,1083 L 313,1084 L 312,1085 L 312,1086 L 310,1088 L 310,1089 L 308,1091 L 308,1092 L 306,1094 L 306,1095 L 303,1098 L 303,1099 L 297,1105 L 297,1106 L 291,1112 L 291,1113 L 288,1116 L 288,1117 L 285,1120 L 285,1121 L 284,1122 L 284,1123 L 282,1125 L 282,1126 L 281,1127 L 281,1128 L 280,1129 L 280,1130 L 278,1132 L 278,1133 L 277,1134 L 277,1136 L 276,1137 L 276,1138 L 275,1139 L 275,1140 L 274,1141 L 274,1142 L 273,1143 L 273,1145 L 272,1146 L 272,1148 L 271,1149 L 271,1151 L 270,1152 L 270,1154 L 269,1155 L 269,1158 L 268,1159 L 268,1169 L 269,1170 L 269,1173 L 270,1174 L 270,1175 L 276,1181 L 277,1181 L 278,1182 L 281,1182 L 282,1183 L 293,1183 L 294,1182 L 297,1182 L 298,1181 L 300,1181 L 301,1180 L 302,1180 L 303,1179 L 304,1179 L 305,1178 L 306,1178 L 308,1176 L 309,1176 L 312,1173 L 313,1173 L 328,1158 L 328,1157 L 332,1153 L 332,1152 L 335,1149 L 335,1148 L 338,1145 L 338,1144 L 340,1142 L 340,1141 L 342,1139 L 342,1138 L 343,1137 L 343,1136 L 345,1134 L 345,1133 L 347,1131 L 347,1130 L 348,1129 L 348,1128 L 350,1126 L 350,1125 L 351,1124 L 351,1123 L 352,1122 L 352,1121 L 353,1120 L 353,1119 L 355,1117 L 355,1116 L 356,1115 L 356,1114 L 357,1113 L 357,1112 L 358,1111 L 358,1110 L 360,1108 L 361,1109 L 362,1109 L 363,1110 L 364,1110 L 365,1111 L 366,1111 L 368,1113 L 369,1113 L 370,1114 L 374,1114 L 374,1113 L 376,1111 L 376,1110 L 377,1109 L 377,1108 L 379,1106 L 379,1105 L 380,1104 L 380,1103 L 382,1101 L 382,1100 L 383,1099 L 383,1098 L 384,1097 L 384,1096 L 386,1094 L 386,1093 L 387,1092 L 387,1091 L 389,1089 L 389,1088 L 390,1087 L 390,1086 L 392,1084 L 392,1083 L 394,1081 L 394,1080 L 395,1079 L 395,1078 L 397,1076 L 397,1075 L 399,1073 L 399,1072 L 401,1070 L 401,1069 L 403,1067 L 403,1066 L 405,1064 L 405,1063 L 407,1061 L 407,1060 L 409,1058 L 409,1057 L 412,1054 L 412,1053 L 414,1051 L 414,1050 L 415,1049 L 415,1048 L 417,1046 L 417,1045 L 419,1043 L 419,1042 L 422,1039 L 422,1038 L 423,1037 L 423,1036 L 425,1034 L 425,1033 L 427,1031 L 427,1030 L 429,1028 L 429,1027 L 431,1025 L 431,1024 L 432,1023 L 432,1022 L 434,1020 L 434,1019 L 436,1017 L 436,1016 L 437,1015 L 437,1014 L 439,1012 L 439,1011 L 441,1009 L 441,1008 L 443,1006 L 443,1005 L 444,1004 L 444,1003 L 446,1001 L 446,1000 L 447,999 L 447,998 L 449,996 L 449,995 L 450,994 L 450,993 L 452,991 L 452,990 L 453,989 L 453,988 L 455,986 L 455,985 L 456,984 L 456,983 L 457,982 L 457,981 L 459,979 L 459,978 L 460,977 L 460,976 L 461,975 L 461,974 L 463,972 L 463,971 L 464,970 L 464,969 L 466,967 L 466,966 L 467,965 L 467,964 L 469,962 L 469,961 L 471,959 L 471,958 L 472,957 L 472,956 L 474,954 L 474,953 L 476,951 L 476,950 L 478,948 L 478,947 L 479,946 L 479,945 L 481,943 L 481,942 L 483,940 L 483,939 L 484,938 L 484,937 L 486,935 L 486,934 L 487,933 L 487,932 L 489,930 L 489,929 L 491,927 L 491,926 L 492,925 L 492,924 L 494,922 L 494,921 L 496,919 L 496,918 L 497,917 L 497,916 L 499,914 L 499,913 L 500,912 L 500,911 L 502,909 L 502,908 L 503,907 L 503,906 L 505,904 L 505,903 L 506,902 L 506,901 L 508,899 L 508,898 L 509,897 L 509,896 L 511,894 L 511,893 L 512,892 L 512,891 L 513,890 L 513,889 L 515,887 L 515,886 L 516,885 L 516,884 L 518,882 L 518,881 L 519,880 L 519,879 L 521,877 L 521,876 L 522,875 L 522,874 L 524,872 L 524,871 L 525,870 L 525,869 L 526,868 L 526,867 L 527,866 L 527,865 L 529,863 L 529,862 L 530,861 L 530,860 L 532,858 L 532,857 L 533,856 L 533,855 L 534,854 L 534,853 L 536,851 L 536,850 L 537,849 L 537,848 L 538,847 L 538,846 L 539,845 L 539,844 L 540,843 L 540,842 L 541,841 L 541,840 L 542,839 L 542,838 L 543,837 L 543,836 L 545,834 L 545,833 L 546,832 L 546,831 L 547,830 L 547,829 L 548,828 L 548,827 L 549,826 L 549,825 L 550,824 L 550,822 L 551,821 L 551,820 L 552,819 L 552,818 L 553,817 L 553,816 L 554,815 L 554,814 L 555,813 L 556,813 L 557,814 L 557,819 L 558,820 L 558,825 L 559,826 L 559,831 L 560,832 L 560,837 L 561,838 L 561,843 L 562,844 L 562,849 L 563,850 L 563,854 L 564,855 L 564,859 L 565,860 L 565,864 L 566,865 L 566,868 L 567,869 L 567,873 L 568,874 L 568,877 L 569,878 L 569,882 L 570,883 L 570,887 L 571,888 L 571,892 L 572,893 L 572,897 L 573,898 L 573,902 L 574,903 L 574,907 L 575,908 L 575,911 L 576,912 L 576,916 L 577,917 L 577,922 L 578,923 L 578,927 L 579,928 L 579,935 L 580,936 L 580,945 L 581,946 L 581,975 L 580,976 L 580,986 L 579,987 L 579,1002 L 578,1003 L 578,1033 L 579,1034 L 579,1044 L 580,1045 L 580,1053 L 581,1054 L 581,1061 L 582,1062 L 582,1069 L 583,1070 L 583,1075 L 584,1076 L 584,1082 L 585,1083 L 585,1091 L 586,1092 L 586,1097 L 587,1098 L 587,1103 L 588,1104 L 588,1109 L 589,1110 L 589,1116 L 590,1117 L 590,1125 L 591,1126 L 591,1173 L 592,1174 L 592,1176 L 596,1180 L 597,1180 L 598,1181 L 600,1181 L 601,1182 L 615,1182 L 616,1183 L 630,1183 L 631,1184 L 636,1184 L 637,1185 L 638,1185 L 639,1186 L 640,1186 L 641,1187 L 642,1187 L 644,1189 L 645,1189 L 646,1190 L 647,1190 L 649,1192 L 650,1192 L 652,1194 L 654,1194 L 655,1195 L 657,1195 L 658,1196 L 664,1196 L 665,1195 L 667,1195 L 668,1194 L 669,1194 L 672,1191 L 672,1190 L 673,1189 L 673,1188 L 674,1187 L 674,1183 L 675,1182 L 675,1181 L 674,1180 L 674,1177 L 673,1176 L 673,1173 L 672,1172 L 672,1170 L 671,1169 L 671,1168 L 670,1167 L 670,1166 L 669,1165 L 669,1164 L 668,1163 L 668,1162 L 667,1161 L 667,1160 L 665,1158 L 665,1157 L 663,1155 L 663,1154 L 656,1147 L 656,1146 L 655,1145 L 655,1142 L 654,1141 L 654,1113 L 655,1112 L 654,1111 L 655,1110 L 655,1095 L 656,1094 L 656,1078 L 657,1077 L 657,1063 L 658,1062 L 658,1045 L 659,1044 L 659,1029 L 660,1028 L 660,1013 L 661,1012 L 661,1006 L 662,1005 L 663,1006 L 663,1007 L 664,1008 L 664,1010 L 665,1011 L 665,1013 L 666,1014 L 666,1016 L 667,1017 L 667,1018 L 668,1019 L 668,1021 L 669,1022 L 669,1024 L 670,1025 L 670,1027 L 671,1028 L 671,1030 L 672,1031 L 672,1033 L 673,1034 L 673,1035 L 674,1036 L 674,1038 L 675,1039 L 675,1041 L 676,1042 L 676,1044 L 677,1045 L 677,1047 L 678,1048 L 678,1050 L 679,1051 L 679,1053 L 680,1054 L 680,1055 L 681,1056 L 681,1058 L 682,1059 L 682,1061 L 683,1062 L 683,1064 L 684,1065 L 684,1067 L 685,1068 L 685,1070 L 686,1071 L 686,1073 L 687,1074 L 687,1076 L 688,1077 L 688,1079 L 689,1080 L 689,1082 L 690,1083 L 690,1085 L 691,1086 L 691,1087 L 692,1088 L 692,1090 L 693,1091 L 693,1093 L 694,1094 L 694,1096 L 695,1097 L 695,1098 L 696,1099 L 696,1101 L 697,1102 L 697,1104 L 698,1105 L 698,1107 L 699,1108 L 699,1110 L 700,1111 L 700,1113 L 701,1114 L 701,1116 L 702,1117 L 702,1118 L 703,1119 L 703,1121 L 704,1122 L 704,1124 L 705,1125 L 705,1127 L 706,1128 L 706,1130 L 707,1131 L 707,1133 L 708,1134 L 708,1136 L 709,1137 L 709,1139 L 710,1140 L 710,1142 L 711,1143 L 711,1145 L 712,1146 L 712,1147 L 713,1148 L 713,1150 L 714,1151 L 714,1153 L 715,1154 L 715,1155 L 716,1156 L 716,1158 L 717,1159 L 717,1160 L 718,1161 L 718,1162 L 719,1163 L 719,1164 L 720,1165 L 720,1166 L 725,1171 L 726,1171 L 728,1173 L 729,1173 L 730,1174 L 731,1174 L 732,1175 L 733,1175 L 734,1176 L 736,1176 L 737,1177 L 740,1177 L 741,1178 L 752,1178 L 753,1177 L 754,1177 L 755,1176 L 755,1173 L 754,1172 L 754,1171 L 753,1170 L 753,1169 L 746,1162 L 745,1162 L 742,1159 L 741,1159 L 740,1158 L 739,1158 L 738,1157 L 737,1157 L 736,1156 L 735,1156 L 734,1155 L 733,1155 L 732,1154 L 731,1154 L 730,1153 L 729,1153 L 725,1149 L 725,1147 L 724,1146 L 724,1145 L 723,1144 L 723,1142 L 722,1141 L 722,1139 L 721,1138 L 721,1136 L 720,1135 L 720,1133 L 719,1132 L 719,1131 L 718,1130 L 718,1128 L 717,1127 L 717,1125 L 716,1124 L 716,1122 L 715,1121 L 715,1119 L 714,1118 L 714,1116 L 713,1115 L 713,1113 L 712,1112 L 712,1111 L 711,1110 L 711,1107 L 710,1106 L 710,1104 L 709,1103 L 709,1102 L 708,1101 L 708,1099 L 707,1098 L 707,1096 L 706,1095 L 706,1093 L 705,1092 L 705,1091 L 704,1090 L 704,1087 L 703,1086 L 703,1085 L 702,1084 L 702,1082 L 701,1081 L 701,1079 L 700,1078 L 700,1076 L 699,1075 L 699,1073 L 698,1072 L 698,1070 L 697,1069 L 697,1067 L 696,1066 L 696,1065 L 695,1064 L 695,1061 L 694,1060 L 694,1059 L 693,1058 L 693,1056 L 692,1055 L 692,1053 L 691,1052 L 691,1050 L 690,1049 L 690,1047 L 689,1046 L 689,1044 L 688,1043 L 688,1041 L 687,1040 L 687,1038 L 686,1037 L 686,1035 L 685,1034 L 685,1033 L 684,1032 L 684,1030 L 683,1029 L 683,1027 L 682,1026 L 682,1024 L 681,1023 L 681,1021 L 680,1020 L 680,1018 L 679,1017 L 679,1015 L 678,1014 L 678,1012 L 677,1011 L 677,1009 L 676,1008 L 676,1006 L 675,1005 L 675,1003 L 674,1002 L 674,1000 L 673,999 L 673,997 L 672,996 L 672,994 L 671,993 L 671,991 L 670,990 L 670,988 L 669,987 L 669,985 L 668,984 L 668,982 L 667,981 L 667,979 L 666,978 L 666,976 L 665,975 L 665,973 L 664,972 L 664,969 L 663,968 L 663,966 L 662,965 L 662,963 L 661,962 L 661,960 L 660,959 L 660,957 L 659,956 L 659,954 L 658,953 L 658,950 L 657,949 L 657,947 L 656,946 L 656,944 L 655,943 L 655,941 L 654,940 L 654,933 L 655,932 L 655,919 L 656,918 L 656,900 L 657,899 L 657,881 L 658,880 L 658,808 L 657,807 L 657,782 L 656,781 L 656,769 L 655,768 L 655,760 L 654,759 L 654,750 L 653,749 L 653,742 L 652,741 L 652,735 L 651,734 L 651,728 L 650,727 L 650,721 L 649,720 L 649,715 L 648,714 L 648,709 L 647,708 L 647,702 L 646,701 L 646,698 L 645,697 L 645,695 L 644,694 L 644,693 L 642,691 L 642,690 L 641,689 L 641,688 L 639,686 L 639,685 L 637,683 L 637,682 L 636,681 L 636,680 L 634,678 L 634,677 L 632,675 L 632,674 L 631,673 L 631,672 L 629,670 L 629,669 L 628,668 L 628,663 L 629,662 L 629,644 L 628,643 L 628,633 L 627,632 L 627,621 L 626,620 L 626,610 L 625,609 L 625,600 L 624,599 L 624,588 L 623,587 L 623,575 L 622,574 L 622,554 L 623,553 L 623,515 L 622,514 L 622,505 L 621,504 L 621,497 L 620,496 L 620,490 L 619,489 L 619,485 L 618,484 L 618,479 L 617,478 L 617,474 L 616,473 L 616,470 L 615,469 L 615,466 L 614,465 L 614,461 L 613,460 L 613,458 L 612,457 L 612,454 L 611,453 L 611,450 L 610,449 L 610,447 L 609,446 L 609,444 L 608,443 L 608,441 L 607,440 L 607,438 L 606,437 L 606,435 L 605,434 L 605,433 L 604,432 L 604,431 L 603,430 L 603,429 L 602,428 L 602,427 L 601,426 L 601,425 L 599,423 L 599,422 L 591,414 L 590,414 L 587,411 L 586,411 L 585,410 L 584,410 L 583,409 L 581,409 L 580,408 L 579,408 L 578,407 L 576,407 L 575,406 L 570,406 L 569,405 L 554,405 L 553,406 L 548,406 L 547,407 L 541,407 L 540,408 L 531,408 L 530,407 L 526,407 L 525,406 L 523,406 L 522,405 L 518,405 L 517,404 L 513,404 L 512,403 L 494,403 L 493,404 L 488,404 L 487,405 L 481,405 L 480,404 L 480,402 L 479,401 L 479,399 L 478,398 L 478,396 L 477,395 L 477,393 L 476,392 L 476,389 L 475,388 L 475,383 L 474,382 L 474,375 L 473,374 L 473,371 L 472,370 L 472,367 L 471,366 L 471,364 L 470,363 L 470,361 L 469,360 L 469,359 L 468,358 L 468,357 L 467,356 L 467,355 L 464,352 L 464,351 L 461,348 L 460,348 L 458,346 L 457,346 L 456,345 L 455,345 L 454,344 L 453,344 L 452,343 L 449,343 L 448,342 L 443,342 L 442,341 Z" fill="black" /></svg>