<?xml version="1.0" encoding="utf-8" ?>
<svg baseProfile="full" height="1536" version="1.1" width="1024" xmlns="http://www.w3.org/2000/svg" xmlns:ev="http://www.w3.org/2001/xml-events" xmlns:xlink="http://www.w3.org/1999/xlink"><path d="M 424,41 L 422,43 L 422,44 L 421,45 L 421,48 L 422,49 L 422,51 L 423,52 L 423,53 L 424,54 L 424,55 L 425,56 L 425,57 L 426,58 L 426,59 L 427,60 L 427,61 L 428,62 L 428,63 L 429,64 L 429,65 L 430,66 L 430,67 L 431,68 L 431,69 L 432,70 L 432,72 L 433,73 L 433,75 L 434,76 L 434,81 L 435,82 L 435,83 L 434,84 L 434,89 L 433,90 L 433,91 L 432,92 L 432,94 L 430,96 L 430,97 L 427,100 L 427,101 L 424,104 L 424,105 L 422,107 L 422,108 L 419,111 L 419,112 L 417,114 L 417,115 L 415,117 L 415,118 L 413,120 L 413,121 L 410,124 L 410,125 L 408,127 L 408,128 L 406,130 L 406,131 L 403,134 L 403,135 L 401,137 L 401,138 L 399,140 L 399,141 L 396,144 L 396,145 L 394,147 L 394,148 L 391,151 L 391,152 L 389,154 L 389,155 L 387,157 L 387,158 L 384,161 L 384,162 L 382,164 L 382,165 L 380,167 L 380,168 L 378,170 L 378,171 L 376,173 L 376,174 L 373,177 L 373,178 L 371,180 L 371,181 L 368,184 L 368,185 L 366,187 L 366,188 L 364,190 L 364,191 L 361,194 L 361,195 L 359,197 L 359,198 L 357,200 L 357,201 L 354,204 L 354,205 L 352,207 L 352,208 L 350,210 L 350,211 L 348,213 L 348,214 L 345,217 L 345,218 L 343,220 L 343,221 L 341,223 L 341,224 L 338,227 L 338,228 L 336,230 L 336,231 L 334,233 L 334,234 L 331,237 L 331,238 L 329,240 L 329,241 L 327,243 L 327,244 L 324,247 L 324,248 L 322,250 L 322,251 L 320,253 L 320,254 L 317,257 L 317,258 L 315,260 L 315,261 L 312,264 L 312,265 L 310,267 L 310,268 L 307,271 L 307,272 L 305,274 L 305,275 L 303,277 L 303,278 L 301,280 L 301,281 L 298,284 L 298,285 L 296,287 L 296,288 L 294,290 L 294,291 L 292,293 L 292,294 L 289,297 L 289,298 L 287,300 L 287,301 L 285,303 L 285,304 L 282,307 L 282,308 L 280,310 L 280,311 L 278,313 L 278,314 L 275,317 L 275,318 L 273,320 L 273,321 L 271,323 L 271,324 L 269,326 L 269,327 L 266,330 L 266,331 L 264,333 L 264,334 L 262,336 L 262,337 L 260,339 L 260,340 L 257,343 L 257,344 L 255,346 L 255,347 L 253,349 L 253,350 L 250,353 L 250,354 L 248,356 L 248,357 L 246,359 L 246,360 L 244,362 L 244,363 L 242,365 L 242,366 L 239,369 L 239,370 L 237,372 L 237,373 L 235,375 L 235,376 L 233,378 L 233,379 L 231,381 L 231,382 L 228,385 L 228,386 L 226,388 L 226,389 L 221,394 L 220,394 L 219,395 L 218,395 L 217,396 L 215,396 L 214,397 L 211,397 L 210,398 L 209,398 L 208,399 L 206,399 L 205,400 L 204,400 L 203,401 L 202,401 L 200,403 L 199,403 L 197,405 L 196,405 L 193,408 L 192,408 L 190,410 L 189,410 L 186,413 L 185,413 L 180,418 L 179,418 L 171,426 L 171,427 L 166,432 L 166,433 L 163,436 L 163,437 L 161,439 L 161,440 L 159,442 L 159,443 L 158,444 L 158,445 L 157,446 L 157,447 L 156,448 L 156,449 L 155,450 L 155,451 L 154,452 L 154,453 L 153,454 L 153,456 L 152,457 L 152,458 L 151,459 L 151,462 L 150,463 L 150,466 L 149,467 L 149,473 L 148,474 L 148,481 L 149,482 L 149,487 L 150,488 L 150,489 L 151,490 L 151,491 L 152,492 L 152,493 L 157,498 L 158,498 L 159,499 L 160,499 L 161,500 L 162,500 L 163,501 L 165,501 L 166,502 L 169,502 L 170,503 L 173,503 L 174,504 L 178,504 L 179,505 L 182,505 L 183,506 L 186,506 L 187,507 L 189,507 L 190,508 L 192,508 L 193,509 L 194,509 L 195,510 L 197,510 L 199,512 L 200,512 L 201,513 L 202,513 L 204,515 L 205,515 L 207,517 L 208,517 L 210,519 L 211,519 L 214,522 L 215,522 L 218,525 L 219,525 L 223,529 L 224,529 L 229,534 L 230,534 L 237,541 L 238,541 L 242,545 L 243,545 L 246,548 L 247,548 L 249,550 L 250,550 L 252,552 L 253,552 L 255,554 L 256,554 L 257,555 L 258,555 L 259,556 L 260,556 L 261,557 L 262,557 L 263,558 L 264,558 L 265,559 L 266,559 L 267,560 L 268,560 L 269,561 L 270,561 L 271,562 L 273,562 L 274,563 L 275,563 L 276,564 L 277,564 L 278,565 L 280,565 L 281,566 L 282,566 L 283,567 L 285,567 L 286,568 L 288,568 L 289,569 L 291,569 L 292,570 L 294,570 L 295,571 L 297,571 L 298,572 L 300,572 L 301,573 L 303,573 L 304,574 L 306,574 L 307,575 L 310,575 L 311,576 L 313,576 L 314,577 L 317,577 L 318,578 L 320,578 L 321,579 L 324,579 L 325,580 L 327,580 L 328,581 L 331,581 L 332,582 L 335,582 L 336,583 L 339,583 L 340,584 L 343,584 L 344,585 L 347,585 L 348,586 L 351,586 L 352,587 L 355,587 L 356,588 L 359,588 L 360,589 L 364,589 L 365,590 L 369,590 L 370,591 L 373,591 L 374,592 L 377,592 L 378,593 L 382,593 L 383,594 L 386,594 L 387,595 L 391,595 L 392,596 L 396,596 L 397,597 L 401,597 L 402,598 L 406,598 L 407,599 L 412,599 L 413,600 L 418,600 L 419,601 L 422,601 L 423,602 L 424,602 L 425,603 L 426,603 L 431,608 L 431,609 L 433,611 L 433,612 L 434,613 L 434,614 L 435,615 L 435,617 L 436,618 L 436,620 L 437,621 L 437,625 L 438,626 L 438,634 L 439,635 L 439,666 L 438,667 L 438,677 L 437,678 L 437,685 L 436,686 L 436,692 L 435,693 L 435,697 L 434,698 L 434,702 L 433,703 L 433,707 L 432,708 L 432,710 L 431,711 L 431,713 L 430,714 L 430,716 L 429,717 L 429,718 L 428,719 L 428,720 L 427,721 L 427,722 L 426,723 L 426,724 L 424,726 L 424,727 L 422,729 L 422,730 L 419,733 L 419,734 L 416,737 L 416,738 L 415,739 L 415,740 L 414,741 L 414,742 L 413,743 L 413,744 L 412,745 L 412,746 L 411,747 L 411,748 L 410,749 L 410,750 L 409,751 L 409,753 L 408,754 L 408,755 L 407,756 L 407,758 L 406,759 L 406,760 L 405,761 L 405,764 L 404,765 L 404,767 L 403,768 L 403,771 L 402,772 L 402,774 L 401,775 L 401,779 L 400,780 L 400,785 L 399,786 L 399,799 L 398,800 L 398,812 L 397,813 L 397,818 L 396,819 L 396,823 L 395,824 L 395,829 L 394,830 L 394,834 L 393,835 L 393,839 L 392,840 L 392,844 L 391,845 L 391,849 L 390,850 L 390,854 L 389,855 L 389,859 L 388,860 L 388,863 L 387,864 L 387,868 L 386,869 L 386,874 L 385,875 L 385,880 L 384,881 L 384,885 L 383,886 L 383,891 L 382,892 L 382,897 L 381,898 L 381,903 L 380,904 L 380,908 L 379,909 L 379,915 L 378,916 L 378,921 L 377,922 L 377,926 L 376,927 L 376,933 L 375,934 L 375,940 L 374,941 L 374,948 L 373,949 L 373,955 L 372,956 L 372,961 L 371,962 L 371,969 L 370,970 L 370,977 L 369,978 L 369,984 L 368,985 L 368,992 L 367,993 L 367,999 L 366,1000 L 366,1007 L 365,1008 L 365,1014 L 364,1015 L 364,1021 L 363,1022 L 363,1028 L 362,1029 L 362,1034 L 361,1035 L 361,1040 L 360,1041 L 360,1045 L 359,1046 L 359,1050 L 358,1051 L 358,1054 L 357,1055 L 357,1059 L 356,1060 L 356,1063 L 355,1064 L 355,1067 L 354,1068 L 354,1071 L 353,1072 L 353,1076 L 352,1077 L 352,1079 L 351,1080 L 351,1083 L 350,1084 L 350,1087 L 349,1088 L 349,1091 L 348,1092 L 348,1095 L 347,1096 L 347,1099 L 346,1100 L 346,1103 L 345,1104 L 345,1107 L 344,1108 L 344,1112 L 343,1113 L 343,1117 L 342,1118 L 342,1122 L 341,1123 L 341,1128 L 340,1129 L 340,1133 L 339,1134 L 339,1138 L 338,1139 L 338,1144 L 337,1145 L 337,1149 L 336,1150 L 336,1155 L 335,1156 L 335,1161 L 334,1162 L 334,1169 L 333,1170 L 333,1176 L 332,1177 L 332,1183 L 331,1184 L 331,1192 L 330,1193 L 330,1200 L 329,1201 L 329,1209 L 328,1210 L 328,1216 L 327,1217 L 327,1225 L 326,1226 L 326,1235 L 325,1236 L 325,1244 L 324,1245 L 324,1254 L 323,1255 L 323,1264 L 322,1265 L 322,1275 L 321,1276 L 321,1285 L 320,1286 L 320,1297 L 319,1298 L 319,1309 L 318,1310 L 318,1322 L 317,1323 L 317,1344 L 318,1345 L 318,1391 L 319,1392 L 319,1394 L 320,1395 L 320,1396 L 321,1397 L 321,1398 L 324,1401 L 325,1401 L 326,1402 L 327,1402 L 328,1403 L 329,1403 L 330,1404 L 331,1404 L 332,1405 L 333,1405 L 334,1406 L 336,1406 L 337,1407 L 338,1407 L 339,1408 L 342,1408 L 343,1409 L 347,1409 L 348,1410 L 365,1410 L 366,1409 L 370,1409 L 371,1408 L 373,1408 L 374,1407 L 375,1407 L 376,1406 L 377,1406 L 378,1405 L 379,1405 L 381,1403 L 382,1403 L 384,1401 L 384,1400 L 386,1398 L 386,1397 L 387,1396 L 387,1395 L 388,1394 L 388,1391 L 389,1390 L 389,1380 L 388,1379 L 388,1374 L 387,1373 L 387,1370 L 386,1369 L 386,1367 L 385,1366 L 385,1363 L 384,1362 L 384,1360 L 383,1359 L 383,1356 L 382,1355 L 382,1352 L 381,1351 L 381,1347 L 380,1346 L 380,1329 L 381,1328 L 381,1324 L 382,1323 L 382,1320 L 383,1319 L 383,1317 L 384,1316 L 384,1313 L 385,1312 L 385,1309 L 386,1308 L 386,1305 L 387,1304 L 387,1302 L 388,1301 L 388,1298 L 389,1297 L 389,1295 L 390,1294 L 390,1291 L 391,1290 L 391,1288 L 392,1287 L 392,1284 L 393,1283 L 393,1280 L 394,1279 L 394,1276 L 395,1275 L 395,1271 L 396,1270 L 396,1267 L 397,1266 L 397,1262 L 398,1261 L 398,1258 L 399,1257 L 399,1254 L 400,1253 L 400,1249 L 401,1248 L 401,1245 L 402,1244 L 402,1241 L 403,1240 L 403,1236 L 404,1235 L 404,1232 L 405,1231 L 405,1227 L 406,1226 L 406,1223 L 407,1222 L 407,1218 L 408,1217 L 408,1213 L 409,1212 L 409,1209 L 410,1208 L 410,1204 L 411,1203 L 411,1199 L 412,1198 L 412,1194 L 413,1193 L 413,1189 L 414,1188 L 414,1184 L 415,1183 L 415,1179 L 416,1178 L 416,1174 L 417,1173 L 417,1169 L 418,1168 L 418,1164 L 419,1163 L 419,1159 L 420,1158 L 420,1154 L 421,1153 L 421,1150 L 422,1149 L 422,1145 L 423,1144 L 423,1140 L 424,1139 L 424,1135 L 425,1134 L 425,1131 L 426,1130 L 426,1126 L 427,1125 L 427,1122 L 428,1121 L 428,1117 L 429,1116 L 429,1113 L 430,1112 L 430,1109 L 431,1108 L 431,1106 L 432,1105 L 432,1103 L 433,1102 L 433,1099 L 434,1098 L 434,1095 L 435,1094 L 435,1092 L 436,1091 L 436,1088 L 437,1087 L 437,1084 L 438,1083 L 438,1080 L 439,1079 L 439,1076 L 440,1075 L 440,1073 L 441,1072 L 441,1069 L 442,1068 L 442,1065 L 443,1064 L 443,1061 L 444,1060 L 444,1058 L 445,1057 L 445,1054 L 446,1053 L 446,1051 L 447,1050 L 447,1047 L 448,1046 L 448,1043 L 449,1042 L 449,1040 L 450,1039 L 450,1037 L 451,1036 L 451,1033 L 452,1032 L 452,1030 L 453,1029 L 453,1026 L 454,1025 L 454,1023 L 455,1022 L 455,1019 L 456,1018 L 456,1016 L 457,1015 L 457,1013 L 458,1012 L 458,1010 L 459,1009 L 459,1007 L 460,1006 L 460,1004 L 461,1003 L 461,1001 L 462,1000 L 462,998 L 463,997 L 463,995 L 464,994 L 464,992 L 465,991 L 465,989 L 466,988 L 466,986 L 467,985 L 467,983 L 468,982 L 468,980 L 469,979 L 469,977 L 470,976 L 470,975 L 471,974 L 471,972 L 472,971 L 472,969 L 473,968 L 473,966 L 474,965 L 474,964 L 475,963 L 475,961 L 476,960 L 476,959 L 477,958 L 477,956 L 478,955 L 478,954 L 479,953 L 479,951 L 480,950 L 480,948 L 481,947 L 481,946 L 482,945 L 482,944 L 483,943 L 483,941 L 484,940 L 484,939 L 485,938 L 485,936 L 486,935 L 486,934 L 487,933 L 487,931 L 488,930 L 488,929 L 489,928 L 489,927 L 490,926 L 490,924 L 491,923 L 491,922 L 492,921 L 492,920 L 493,919 L 493,918 L 494,917 L 494,916 L 495,915 L 495,914 L 496,913 L 496,912 L 497,911 L 497,910 L 499,908 L 499,907 L 500,906 L 500,905 L 503,902 L 503,901 L 509,895 L 514,895 L 521,902 L 521,903 L 523,905 L 523,906 L 524,907 L 524,908 L 525,909 L 525,910 L 526,911 L 526,912 L 527,913 L 527,914 L 528,915 L 528,916 L 529,917 L 529,918 L 530,919 L 530,921 L 531,922 L 531,923 L 532,924 L 532,926 L 533,927 L 533,929 L 534,930 L 534,931 L 535,932 L 535,934 L 536,935 L 536,938 L 537,939 L 537,941 L 538,942 L 538,944 L 539,945 L 539,948 L 540,949 L 540,952 L 541,953 L 541,955 L 542,956 L 542,960 L 543,961 L 543,964 L 544,965 L 544,969 L 545,970 L 545,974 L 546,975 L 546,979 L 547,980 L 547,984 L 548,985 L 548,990 L 549,991 L 549,995 L 550,996 L 550,1001 L 551,1002 L 551,1007 L 552,1008 L 552,1014 L 553,1015 L 553,1022 L 554,1023 L 554,1031 L 555,1032 L 555,1039 L 556,1040 L 556,1048 L 557,1049 L 557,1057 L 558,1058 L 558,1066 L 559,1067 L 559,1073 L 560,1074 L 560,1081 L 561,1082 L 561,1089 L 562,1090 L 562,1095 L 563,1096 L 563,1101 L 564,1102 L 564,1106 L 565,1107 L 565,1110 L 566,1111 L 566,1114 L 567,1115 L 567,1118 L 568,1119 L 568,1121 L 569,1122 L 569,1125 L 570,1126 L 570,1127 L 571,1128 L 571,1130 L 572,1131 L 572,1133 L 573,1134 L 573,1135 L 574,1136 L 574,1138 L 575,1139 L 575,1140 L 576,1141 L 576,1144 L 577,1145 L 577,1148 L 578,1149 L 578,1153 L 579,1154 L 579,1158 L 580,1159 L 580,1163 L 581,1164 L 581,1171 L 582,1172 L 582,1179 L 583,1180 L 583,1188 L 584,1189 L 584,1200 L 585,1201 L 585,1213 L 586,1214 L 586,1228 L 587,1229 L 587,1240 L 588,1241 L 588,1249 L 589,1250 L 589,1258 L 590,1259 L 590,1267 L 591,1268 L 591,1275 L 592,1276 L 592,1284 L 593,1285 L 593,1290 L 594,1291 L 594,1297 L 595,1298 L 595,1302 L 596,1303 L 596,1308 L 597,1309 L 597,1313 L 598,1314 L 598,1317 L 599,1318 L 599,1320 L 600,1321 L 600,1324 L 601,1325 L 601,1328 L 602,1329 L 602,1333 L 603,1334 L 603,1339 L 604,1340 L 604,1345 L 605,1346 L 605,1350 L 606,1351 L 606,1355 L 607,1356 L 607,1359 L 608,1360 L 608,1363 L 609,1364 L 609,1367 L 610,1368 L 610,1370 L 611,1371 L 611,1372 L 612,1373 L 612,1375 L 613,1376 L 613,1377 L 614,1378 L 614,1380 L 615,1381 L 615,1382 L 616,1383 L 616,1384 L 617,1385 L 617,1386 L 618,1387 L 618,1388 L 621,1391 L 621,1392 L 629,1400 L 630,1400 L 631,1401 L 632,1401 L 633,1402 L 634,1402 L 635,1403 L 637,1403 L 638,1404 L 640,1404 L 641,1405 L 649,1405 L 650,1406 L 657,1406 L 658,1405 L 665,1405 L 666,1404 L 669,1404 L 670,1403 L 672,1403 L 673,1402 L 674,1402 L 675,1401 L 676,1401 L 677,1400 L 678,1400 L 679,1399 L 680,1399 L 686,1393 L 686,1392 L 687,1391 L 687,1390 L 688,1389 L 688,1387 L 689,1386 L 689,1375 L 688,1374 L 688,1372 L 687,1371 L 687,1370 L 686,1369 L 686,1368 L 685,1367 L 685,1366 L 683,1364 L 683,1363 L 680,1360 L 680,1359 L 676,1355 L 676,1354 L 674,1352 L 674,1351 L 670,1347 L 670,1346 L 667,1343 L 667,1342 L 665,1340 L 665,1339 L 663,1337 L 663,1336 L 662,1335 L 662,1334 L 661,1333 L 661,1332 L 660,1331 L 660,1330 L 659,1329 L 659,1327 L 658,1326 L 658,1320 L 657,1319 L 657,1174 L 656,1173 L 656,1147 L 655,1146 L 655,1132 L 654,1131 L 654,1120 L 653,1119 L 653,1103 L 652,1102 L 652,1079 L 651,1078 L 651,1048 L 650,1047 L 650,1010 L 649,1009 L 649,973 L 648,972 L 648,945 L 647,944 L 647,926 L 646,925 L 646,913 L 645,912 L 645,905 L 644,904 L 644,899 L 643,898 L 643,893 L 642,892 L 642,889 L 641,888 L 641,885 L 640,884 L 640,881 L 639,880 L 639,876 L 638,875 L 638,871 L 637,870 L 637,866 L 636,865 L 636,859 L 635,858 L 635,829 L 636,828 L 636,823 L 637,822 L 637,819 L 638,818 L 638,816 L 639,815 L 639,813 L 640,812 L 640,810 L 641,809 L 641,804 L 642,803 L 642,789 L 641,788 L 641,783 L 640,782 L 640,779 L 639,778 L 639,776 L 638,775 L 638,773 L 637,772 L 637,770 L 636,769 L 636,767 L 635,766 L 635,764 L 634,763 L 634,761 L 633,760 L 633,758 L 632,757 L 632,755 L 631,754 L 631,751 L 630,750 L 630,747 L 629,746 L 629,744 L 628,743 L 628,740 L 627,739 L 627,735 L 626,734 L 626,730 L 625,729 L 625,724 L 624,723 L 624,716 L 623,715 L 623,674 L 624,673 L 624,660 L 625,659 L 625,648 L 626,647 L 626,637 L 627,636 L 627,626 L 628,625 L 628,614 L 629,613 L 629,603 L 630,602 L 630,592 L 631,591 L 631,581 L 632,580 L 632,568 L 633,567 L 633,533 L 632,532 L 632,528 L 631,527 L 631,525 L 630,524 L 630,522 L 629,521 L 629,520 L 627,518 L 627,517 L 625,515 L 625,514 L 623,512 L 623,511 L 619,507 L 619,506 L 617,504 L 617,503 L 615,501 L 615,500 L 614,499 L 614,498 L 613,497 L 613,495 L 612,494 L 612,491 L 611,490 L 611,485 L 610,484 L 610,473 L 611,472 L 611,467 L 612,466 L 612,464 L 613,463 L 613,460 L 614,459 L 614,458 L 615,457 L 615,455 L 616,454 L 616,452 L 617,451 L 617,450 L 618,449 L 618,447 L 619,446 L 619,444 L 620,443 L 620,441 L 621,440 L 621,438 L 622,437 L 622,435 L 623,434 L 623,432 L 624,431 L 624,429 L 625,428 L 625,425 L 626,424 L 626,421 L 627,420 L 627,416 L 628,415 L 628,406 L 629,405 L 629,400 L 628,399 L 628,392 L 627,391 L 627,388 L 626,387 L 626,385 L 625,384 L 625,382 L 624,381 L 624,380 L 623,379 L 623,378 L 622,377 L 622,376 L 620,374 L 620,373 L 616,369 L 616,368 L 611,363 L 610,363 L 607,360 L 606,360 L 604,358 L 603,358 L 602,357 L 601,357 L 600,356 L 599,356 L 598,355 L 596,355 L 595,354 L 593,354 L 592,353 L 590,353 L 589,352 L 585,352 L 584,351 L 576,351 L 575,350 L 568,350 L 567,351 L 559,351 L 558,352 L 554,352 L 553,353 L 551,353 L 550,354 L 548,354 L 547,355 L 546,355 L 545,356 L 543,356 L 542,357 L 541,357 L 540,358 L 539,358 L 537,360 L 536,360 L 535,361 L 534,361 L 532,363 L 531,363 L 528,366 L 527,366 L 520,373 L 520,374 L 517,377 L 517,378 L 516,379 L 516,380 L 514,382 L 514,383 L 513,384 L 513,385 L 512,386 L 512,387 L 511,388 L 511,390 L 510,391 L 510,392 L 509,393 L 509,396 L 508,397 L 508,400 L 507,401 L 507,404 L 506,405 L 505,405 L 504,406 L 497,406 L 496,407 L 491,407 L 490,408 L 488,408 L 487,409 L 484,409 L 483,410 L 482,410 L 481,411 L 480,411 L 479,412 L 478,412 L 477,413 L 476,413 L 475,414 L 474,414 L 473,415 L 472,415 L 470,417 L 469,417 L 466,420 L 465,420 L 457,428 L 456,428 L 448,436 L 448,437 L 437,448 L 437,449 L 429,457 L 429,458 L 422,465 L 422,466 L 415,473 L 415,474 L 408,481 L 408,482 L 402,488 L 402,489 L 396,495 L 396,496 L 389,503 L 389,504 L 385,508 L 384,508 L 383,509 L 381,509 L 380,510 L 375,510 L 374,509 L 368,509 L 367,508 L 362,508 L 361,507 L 358,507 L 357,506 L 353,506 L 352,505 L 349,505 L 348,504 L 345,504 L 344,503 L 340,503 L 339,502 L 336,502 L 335,501 L 332,501 L 331,500 L 328,500 L 327,499 L 324,499 L 323,498 L 320,498 L 319,497 L 317,497 L 316,496 L 313,496 L 312,495 L 309,495 L 308,494 L 305,494 L 304,493 L 302,493 L 301,492 L 298,492 L 297,491 L 294,491 L 293,490 L 291,490 L 290,489 L 287,489 L 286,488 L 284,488 L 283,487 L 280,487 L 279,486 L 277,486 L 276,485 L 273,485 L 272,484 L 270,484 L 269,483 L 267,483 L 266,482 L 263,482 L 262,481 L 260,481 L 259,480 L 258,480 L 257,479 L 254,479 L 253,478 L 251,478 L 250,477 L 249,477 L 248,476 L 246,476 L 245,475 L 244,475 L 243,474 L 242,474 L 241,473 L 240,473 L 238,471 L 237,471 L 234,468 L 234,467 L 233,466 L 233,465 L 232,464 L 232,463 L 231,462 L 231,459 L 230,458 L 230,445 L 231,444 L 231,423 L 230,422 L 230,419 L 229,418 L 229,414 L 228,413 L 228,404 L 229,403 L 229,401 L 230,400 L 230,398 L 232,396 L 232,395 L 235,392 L 235,391 L 237,389 L 237,388 L 239,386 L 239,385 L 242,382 L 242,381 L 244,379 L 244,378 L 246,376 L 246,375 L 249,372 L 249,371 L 251,369 L 251,368 L 253,366 L 253,365 L 255,363 L 255,362 L 257,360 L 257,359 L 260,356 L 260,355 L 262,353 L 262,352 L 264,350 L 264,349 L 266,347 L 266,346 L 269,343 L 269,342 L 271,340 L 271,339 L 273,337 L 273,336 L 275,334 L 275,333 L 278,330 L 278,329 L 280,327 L 280,326 L 282,324 L 282,323 L 284,321 L 284,320 L 287,317 L 287,316 L 289,314 L 289,313 L 292,310 L 292,309 L 294,307 L 294,306 L 296,304 L 296,303 L 298,301 L 298,300 L 301,297 L 301,296 L 303,294 L 303,293 L 305,291 L 305,290 L 308,287 L 308,286 L 310,284 L 310,283 L 312,281 L 312,280 L 314,278 L 314,277 L 316,275 L 316,274 L 319,271 L 319,270 L 321,268 L 321,267 L 324,264 L 324,263 L 326,261 L 326,260 L 328,258 L 328,257 L 331,254 L 331,253 L 333,251 L 333,250 L 336,247 L 336,246 L 338,244 L 338,243 L 340,241 L 340,240 L 342,238 L 342,237 L 345,234 L 345,233 L 347,231 L 347,230 L 350,227 L 350,226 L 351,225 L 351,224 L 354,221 L 354,220 L 356,218 L 356,217 L 359,214 L 359,213 L 361,211 L 361,210 L 363,208 L 363,207 L 366,204 L 366,203 L 368,201 L 368,200 L 370,198 L 370,197 L 373,194 L 373,193 L 375,191 L 375,190 L 377,188 L 377,187 L 379,185 L 379,184 L 382,181 L 382,180 L 384,178 L 384,177 L 386,175 L 386,174 L 389,171 L 389,170 L 391,168 L 391,167 L 393,165 L 393,164 L 396,161 L 396,160 L 398,158 L 398,157 L 400,155 L 400,154 L 403,151 L 403,150 L 405,148 L 405,147 L 407,145 L 407,144 L 410,141 L 410,140 L 412,138 L 412,137 L 415,134 L 415,133 L 417,131 L 417,130 L 419,128 L 419,127 L 422,124 L 422,123 L 424,121 L 424,120 L 426,118 L 426,117 L 428,115 L 428,114 L 431,111 L 431,110 L 433,108 L 433,107 L 437,103 L 437,102 L 438,101 L 439,101 L 441,99 L 442,99 L 443,98 L 451,98 L 452,99 L 455,99 L 456,100 L 460,100 L 461,101 L 465,101 L 466,102 L 470,102 L 471,103 L 489,103 L 490,102 L 492,102 L 493,101 L 494,101 L 496,99 L 496,98 L 497,97 L 497,94 L 498,93 L 498,84 L 497,83 L 497,79 L 496,78 L 496,76 L 493,73 L 492,73 L 491,72 L 489,72 L 488,71 L 456,71 L 455,70 L 452,70 L 451,69 L 450,69 L 449,68 L 448,68 L 447,67 L 446,67 L 445,66 L 444,66 L 436,58 L 436,57 L 434,55 L 434,54 L 433,53 L 433,52 L 432,51 L 432,50 L 431,49 L 431,47 L 430,46 L 430,45 L 429,44 L 429,43 L 428,42 L 427,42 L 426,41 Z" fill="black" /></svg>