<?xml version="1.0" encoding="utf-8" ?>
<svg baseProfile="full" height="1536" version="1.1" width="1024" xmlns="http://www.w3.org/2000/svg" xmlns:ev="http://www.w3.org/2001/xml-events" xmlns:xlink="http://www.w3.org/1999/xlink"><path d="M 557,1208 L 556,1209 L 553,1209 L 552,1210 L 551,1210 L 549,1212 L 548,1212 L 546,1214 L 546,1215 L 544,1217 L 544,1218 L 543,1219 L 543,1222 L 542,1223 L 542,1228 L 543,1229 L 543,1231 L 544,1232 L 544,1234 L 546,1236 L 546,1237 L 550,1241 L 551,1241 L 552,1242 L 553,1242 L 554,1243 L 556,1243 L 557,1244 L 557,1248 L 558,1249 L 561,1249 L 562,1248 L 562,1244 L 563,1243 L 565,1243 L 566,1242 L 568,1242 L 570,1240 L 571,1240 L 574,1237 L 574,1236 L 576,1234 L 576,1232 L 577,1231 L 577,1227 L 578,1226 L 578,1225 L 577,1224 L 577,1220 L 576,1219 L 576,1217 L 574,1215 L 574,1214 L 572,1212 L 571,1212 L 569,1210 L 568,1210 L 567,1209 L 564,1209 L 563,1208 Z" fill="black" /><path d="M 439,172 L 438,173 L 435,173 L 434,174 L 433,174 L 432,175 L 431,175 L 430,176 L 429,176 L 428,177 L 427,177 L 426,178 L 425,178 L 423,180 L 422,180 L 419,183 L 418,183 L 416,185 L 415,185 L 413,187 L 412,187 L 411,188 L 410,188 L 407,191 L 406,191 L 404,193 L 403,193 L 395,201 L 395,202 L 393,204 L 393,205 L 392,206 L 392,208 L 391,209 L 391,211 L 390,212 L 390,223 L 391,224 L 391,230 L 392,231 L 392,236 L 393,237 L 393,241 L 394,242 L 394,246 L 395,247 L 395,251 L 396,252 L 396,255 L 397,256 L 397,258 L 398,259 L 398,263 L 397,264 L 396,264 L 395,265 L 395,266 L 394,267 L 394,274 L 395,275 L 395,276 L 396,277 L 396,279 L 397,280 L 397,282 L 398,283 L 398,285 L 399,286 L 399,287 L 400,288 L 400,290 L 401,291 L 401,292 L 402,293 L 402,294 L 403,295 L 403,296 L 405,298 L 405,299 L 409,303 L 409,304 L 414,309 L 414,310 L 416,312 L 416,313 L 418,315 L 418,316 L 419,317 L 419,321 L 418,322 L 418,327 L 417,328 L 417,330 L 413,334 L 412,334 L 411,335 L 410,335 L 409,336 L 408,336 L 407,337 L 406,337 L 404,339 L 403,339 L 402,340 L 401,340 L 400,341 L 399,341 L 398,342 L 397,342 L 395,344 L 394,344 L 393,345 L 392,345 L 390,347 L 389,347 L 388,348 L 387,348 L 385,350 L 384,350 L 383,351 L 382,351 L 380,353 L 379,353 L 378,354 L 377,354 L 374,357 L 373,357 L 371,359 L 370,359 L 367,362 L 366,362 L 363,365 L 362,365 L 357,370 L 356,370 L 351,375 L 350,375 L 340,385 L 340,386 L 337,389 L 337,390 L 336,391 L 336,392 L 335,393 L 335,395 L 334,396 L 334,399 L 333,400 L 333,423 L 334,424 L 334,431 L 335,432 L 335,437 L 336,438 L 336,442 L 337,443 L 337,446 L 338,447 L 338,450 L 339,451 L 339,454 L 340,455 L 340,457 L 341,458 L 341,460 L 342,461 L 342,463 L 343,464 L 343,465 L 344,466 L 344,468 L 345,469 L 345,470 L 346,471 L 346,472 L 347,473 L 347,474 L 348,475 L 348,476 L 349,477 L 349,478 L 350,479 L 350,480 L 351,481 L 351,482 L 352,483 L 352,485 L 353,486 L 353,487 L 354,488 L 354,489 L 355,490 L 355,491 L 356,492 L 356,493 L 357,494 L 357,495 L 358,496 L 358,497 L 360,499 L 360,500 L 361,501 L 361,502 L 362,503 L 362,504 L 364,506 L 364,507 L 365,508 L 365,509 L 367,511 L 367,512 L 369,514 L 369,515 L 370,516 L 370,517 L 373,520 L 373,521 L 375,523 L 375,524 L 377,526 L 377,527 L 379,529 L 379,530 L 381,532 L 381,533 L 382,534 L 382,535 L 384,537 L 384,538 L 385,539 L 385,540 L 386,541 L 386,544 L 385,545 L 385,548 L 384,549 L 384,552 L 383,553 L 383,556 L 382,557 L 382,559 L 381,560 L 381,562 L 380,563 L 380,565 L 379,566 L 379,569 L 378,570 L 378,572 L 377,573 L 377,575 L 376,576 L 376,578 L 375,579 L 375,581 L 374,582 L 374,583 L 373,584 L 373,586 L 372,587 L 372,589 L 371,590 L 371,592 L 370,593 L 370,595 L 369,596 L 369,598 L 368,599 L 368,600 L 367,601 L 367,603 L 366,604 L 366,607 L 365,608 L 365,610 L 364,611 L 364,613 L 363,614 L 363,617 L 362,618 L 362,622 L 361,623 L 361,628 L 360,629 L 360,631 L 358,633 L 358,634 L 357,635 L 357,636 L 356,637 L 356,638 L 355,639 L 355,640 L 354,641 L 354,642 L 353,643 L 353,644 L 352,645 L 352,647 L 351,648 L 351,649 L 350,650 L 350,652 L 349,653 L 349,655 L 348,656 L 348,658 L 347,659 L 347,661 L 346,662 L 346,664 L 345,665 L 345,667 L 344,668 L 344,671 L 343,672 L 343,682 L 349,688 L 350,688 L 352,690 L 353,690 L 354,691 L 354,693 L 353,694 L 353,696 L 352,697 L 352,699 L 351,700 L 351,702 L 350,703 L 350,705 L 349,706 L 349,709 L 348,710 L 348,712 L 347,713 L 347,720 L 346,721 L 346,736 L 345,737 L 345,741 L 344,742 L 344,744 L 343,745 L 343,748 L 342,749 L 342,751 L 341,752 L 341,754 L 340,755 L 340,756 L 339,757 L 339,758 L 338,759 L 338,761 L 337,762 L 337,763 L 336,764 L 336,766 L 335,767 L 335,768 L 334,769 L 334,770 L 333,771 L 333,773 L 332,774 L 332,776 L 331,777 L 331,780 L 330,781 L 330,784 L 329,785 L 329,789 L 328,790 L 328,796 L 327,797 L 327,807 L 326,808 L 326,816 L 325,817 L 325,826 L 324,827 L 324,835 L 323,836 L 323,844 L 322,845 L 322,853 L 321,854 L 321,862 L 320,863 L 320,870 L 319,871 L 319,878 L 318,879 L 318,885 L 317,886 L 317,891 L 316,892 L 316,896 L 315,897 L 315,901 L 314,902 L 314,906 L 313,907 L 313,910 L 312,911 L 312,913 L 311,914 L 311,917 L 310,918 L 310,920 L 309,921 L 309,922 L 308,923 L 308,924 L 307,925 L 307,927 L 306,928 L 306,929 L 305,930 L 305,932 L 304,933 L 304,934 L 303,935 L 303,936 L 302,937 L 302,939 L 301,940 L 301,942 L 300,943 L 300,945 L 299,946 L 299,948 L 298,949 L 298,951 L 297,952 L 297,955 L 296,956 L 296,958 L 295,959 L 295,962 L 294,963 L 294,967 L 293,968 L 293,971 L 292,972 L 292,975 L 291,976 L 291,979 L 290,980 L 290,984 L 289,985 L 289,989 L 288,990 L 288,993 L 287,994 L 287,997 L 286,998 L 286,1000 L 285,1001 L 285,1003 L 284,1004 L 284,1005 L 283,1006 L 283,1008 L 281,1010 L 281,1011 L 280,1012 L 280,1014 L 279,1015 L 279,1016 L 278,1017 L 278,1018 L 277,1019 L 277,1021 L 276,1022 L 276,1023 L 275,1024 L 275,1026 L 274,1027 L 274,1029 L 273,1030 L 273,1033 L 272,1034 L 272,1038 L 271,1039 L 271,1042 L 270,1043 L 270,1048 L 269,1049 L 269,1054 L 268,1055 L 268,1061 L 267,1062 L 267,1069 L 266,1070 L 266,1077 L 265,1078 L 265,1086 L 264,1087 L 264,1094 L 263,1095 L 263,1101 L 262,1102 L 262,1109 L 261,1110 L 261,1116 L 260,1117 L 260,1123 L 259,1124 L 259,1130 L 258,1131 L 258,1137 L 257,1138 L 257,1143 L 256,1144 L 256,1148 L 255,1149 L 255,1152 L 254,1153 L 254,1156 L 253,1157 L 253,1159 L 252,1160 L 252,1162 L 251,1163 L 251,1165 L 250,1166 L 250,1168 L 249,1169 L 249,1171 L 248,1172 L 248,1173 L 247,1174 L 247,1176 L 246,1177 L 246,1179 L 245,1180 L 245,1183 L 244,1184 L 244,1186 L 243,1187 L 243,1189 L 242,1190 L 242,1192 L 241,1193 L 241,1194 L 240,1195 L 240,1197 L 239,1198 L 239,1199 L 238,1200 L 238,1201 L 237,1202 L 237,1204 L 236,1205 L 235,1205 L 234,1206 L 233,1206 L 232,1207 L 230,1207 L 229,1208 L 228,1208 L 227,1209 L 226,1209 L 225,1210 L 224,1210 L 222,1212 L 221,1212 L 219,1214 L 218,1214 L 212,1220 L 212,1221 L 211,1222 L 211,1223 L 210,1224 L 210,1225 L 209,1226 L 209,1236 L 210,1237 L 210,1238 L 211,1239 L 211,1240 L 213,1242 L 214,1242 L 216,1244 L 218,1244 L 219,1245 L 227,1245 L 228,1246 L 265,1246 L 266,1245 L 274,1245 L 275,1244 L 280,1244 L 281,1243 L 285,1243 L 286,1242 L 291,1242 L 292,1241 L 296,1241 L 297,1240 L 302,1240 L 303,1239 L 308,1239 L 309,1238 L 312,1238 L 313,1237 L 315,1237 L 316,1236 L 317,1236 L 320,1233 L 320,1232 L 321,1231 L 321,1227 L 322,1226 L 322,1221 L 323,1220 L 323,1216 L 324,1215 L 324,1210 L 325,1209 L 325,1205 L 326,1204 L 326,1201 L 327,1200 L 327,1197 L 328,1196 L 328,1193 L 329,1192 L 329,1188 L 330,1187 L 330,1185 L 331,1184 L 331,1181 L 332,1180 L 332,1177 L 333,1176 L 333,1174 L 334,1173 L 334,1170 L 335,1169 L 335,1166 L 336,1165 L 336,1163 L 337,1162 L 337,1159 L 338,1158 L 338,1156 L 339,1155 L 339,1152 L 340,1151 L 340,1148 L 341,1147 L 341,1145 L 342,1144 L 342,1141 L 343,1140 L 343,1138 L 344,1137 L 344,1135 L 345,1134 L 345,1131 L 346,1130 L 346,1128 L 347,1127 L 347,1125 L 348,1124 L 348,1122 L 349,1121 L 349,1118 L 350,1117 L 350,1115 L 351,1114 L 351,1112 L 352,1111 L 352,1109 L 353,1108 L 353,1105 L 354,1104 L 354,1102 L 355,1101 L 355,1099 L 356,1098 L 356,1096 L 357,1095 L 357,1093 L 358,1092 L 358,1090 L 359,1089 L 359,1086 L 360,1085 L 360,1082 L 361,1081 L 361,1078 L 362,1077 L 362,1073 L 363,1072 L 363,1069 L 364,1068 L 364,1065 L 365,1064 L 365,1061 L 366,1060 L 366,1056 L 367,1055 L 367,1051 L 368,1050 L 368,1045 L 369,1044 L 369,1040 L 370,1039 L 370,1035 L 371,1034 L 371,1030 L 372,1029 L 372,1025 L 373,1024 L 373,1020 L 374,1019 L 374,1015 L 375,1014 L 375,1010 L 376,1009 L 376,1005 L 377,1004 L 377,1000 L 378,999 L 378,996 L 379,995 L 379,991 L 380,990 L 380,988 L 381,987 L 381,984 L 382,983 L 382,980 L 383,979 L 383,977 L 384,976 L 384,974 L 385,973 L 385,971 L 386,970 L 386,969 L 387,968 L 387,966 L 388,965 L 388,964 L 389,963 L 389,962 L 390,961 L 390,960 L 391,959 L 391,958 L 392,957 L 392,956 L 393,955 L 393,954 L 394,953 L 394,951 L 395,950 L 395,949 L 396,948 L 396,947 L 397,946 L 397,945 L 398,944 L 398,943 L 399,942 L 399,941 L 400,940 L 400,939 L 401,938 L 401,936 L 402,935 L 402,934 L 403,933 L 403,931 L 404,930 L 404,927 L 405,926 L 405,924 L 406,923 L 406,921 L 407,920 L 407,917 L 408,916 L 408,912 L 409,911 L 409,906 L 410,905 L 410,895 L 411,894 L 411,888 L 412,887 L 412,886 L 413,885 L 413,884 L 414,883 L 414,881 L 415,880 L 415,879 L 416,878 L 416,877 L 417,876 L 417,875 L 418,874 L 418,873 L 419,872 L 419,871 L 420,870 L 420,869 L 421,868 L 421,867 L 422,866 L 422,865 L 423,864 L 423,863 L 424,862 L 424,861 L 425,860 L 425,859 L 426,858 L 426,857 L 427,856 L 427,855 L 428,854 L 428,853 L 429,852 L 429,851 L 430,850 L 430,849 L 431,848 L 431,847 L 432,846 L 432,845 L 433,844 L 433,843 L 434,842 L 434,841 L 435,840 L 435,839 L 436,838 L 436,837 L 438,835 L 438,834 L 439,833 L 439,832 L 440,831 L 440,830 L 442,828 L 442,827 L 443,826 L 443,825 L 444,824 L 444,823 L 446,821 L 446,820 L 447,819 L 447,818 L 448,817 L 448,816 L 449,815 L 449,814 L 451,812 L 451,811 L 452,810 L 452,809 L 454,807 L 454,806 L 455,805 L 455,804 L 457,802 L 457,801 L 458,800 L 458,799 L 460,797 L 460,796 L 461,795 L 461,794 L 463,792 L 463,791 L 465,789 L 465,788 L 466,787 L 466,786 L 468,784 L 468,783 L 470,781 L 470,780 L 472,778 L 472,777 L 474,775 L 474,774 L 475,773 L 475,772 L 477,770 L 477,769 L 478,768 L 488,778 L 488,779 L 499,790 L 499,791 L 506,798 L 506,799 L 510,803 L 510,971 L 509,972 L 509,1206 L 507,1208 L 506,1208 L 505,1209 L 503,1209 L 502,1210 L 501,1210 L 500,1211 L 499,1211 L 498,1212 L 497,1212 L 496,1213 L 495,1213 L 494,1214 L 493,1214 L 492,1215 L 491,1215 L 490,1216 L 489,1216 L 488,1217 L 487,1217 L 485,1219 L 484,1219 L 482,1221 L 481,1221 L 478,1224 L 477,1224 L 472,1229 L 472,1230 L 471,1231 L 471,1232 L 470,1233 L 470,1241 L 471,1242 L 471,1244 L 475,1248 L 476,1248 L 477,1249 L 478,1249 L 479,1250 L 482,1250 L 483,1251 L 490,1251 L 491,1250 L 515,1250 L 516,1249 L 520,1249 L 521,1248 L 521,1247 L 522,1246 L 522,1233 L 521,1232 L 521,1229 L 520,1228 L 520,1225 L 519,1224 L 519,1221 L 518,1220 L 518,1218 L 517,1217 L 517,1215 L 516,1214 L 516,1211 L 515,1210 L 515,1194 L 516,1193 L 516,1147 L 517,1146 L 517,1092 L 518,1091 L 518,1056 L 519,1055 L 519,1013 L 520,1012 L 520,957 L 521,956 L 521,912 L 522,911 L 522,820 L 523,819 L 524,819 L 526,821 L 526,822 L 544,840 L 544,841 L 545,842 L 545,845 L 546,846 L 546,849 L 547,850 L 547,853 L 548,854 L 548,858 L 549,859 L 549,862 L 550,863 L 550,866 L 551,867 L 551,870 L 552,871 L 552,874 L 553,875 L 553,879 L 554,880 L 554,883 L 555,884 L 555,887 L 556,888 L 556,892 L 557,893 L 557,896 L 558,897 L 558,901 L 559,902 L 559,905 L 560,906 L 560,910 L 561,911 L 561,914 L 562,915 L 562,918 L 563,919 L 563,923 L 564,924 L 564,927 L 565,928 L 565,931 L 566,932 L 566,936 L 567,937 L 567,940 L 568,941 L 568,944 L 569,945 L 569,949 L 570,950 L 570,953 L 571,954 L 571,958 L 572,959 L 572,962 L 573,963 L 573,966 L 574,967 L 574,971 L 575,972 L 575,976 L 576,977 L 576,980 L 577,981 L 577,985 L 578,986 L 578,991 L 579,992 L 579,996 L 580,997 L 580,1001 L 581,1002 L 581,1006 L 582,1007 L 582,1011 L 583,1012 L 583,1016 L 584,1017 L 584,1022 L 585,1023 L 585,1027 L 586,1028 L 586,1032 L 587,1033 L 587,1037 L 588,1038 L 588,1040 L 589,1041 L 589,1074 L 590,1075 L 590,1079 L 591,1080 L 591,1082 L 592,1083 L 592,1084 L 593,1085 L 593,1086 L 594,1087 L 594,1088 L 596,1090 L 596,1091 L 599,1094 L 599,1095 L 604,1100 L 604,1101 L 606,1103 L 606,1104 L 607,1105 L 607,1107 L 608,1108 L 608,1110 L 609,1111 L 609,1114 L 610,1115 L 610,1120 L 611,1121 L 611,1131 L 612,1132 L 612,1146 L 613,1147 L 613,1162 L 614,1163 L 614,1176 L 615,1177 L 615,1184 L 616,1185 L 616,1187 L 617,1188 L 617,1189 L 621,1193 L 622,1193 L 624,1195 L 625,1195 L 627,1197 L 628,1197 L 631,1200 L 631,1201 L 632,1202 L 632,1203 L 633,1204 L 633,1213 L 632,1214 L 632,1222 L 631,1223 L 631,1233 L 632,1234 L 632,1235 L 635,1238 L 637,1238 L 638,1239 L 653,1239 L 654,1240 L 664,1240 L 665,1241 L 674,1241 L 675,1242 L 684,1242 L 685,1243 L 694,1243 L 695,1244 L 712,1244 L 713,1243 L 718,1243 L 719,1242 L 720,1242 L 721,1241 L 722,1241 L 723,1240 L 724,1240 L 729,1235 L 729,1234 L 730,1233 L 730,1227 L 729,1226 L 729,1225 L 728,1224 L 728,1222 L 725,1219 L 724,1219 L 722,1217 L 721,1217 L 720,1216 L 719,1216 L 718,1215 L 717,1215 L 716,1214 L 715,1214 L 714,1213 L 712,1213 L 711,1212 L 710,1212 L 709,1211 L 707,1211 L 704,1208 L 704,1196 L 703,1195 L 703,1155 L 702,1154 L 702,1153 L 701,1152 L 701,1151 L 696,1146 L 696,1145 L 695,1144 L 695,1140 L 694,1139 L 694,1128 L 693,1127 L 693,1114 L 692,1113 L 692,1096 L 691,1095 L 691,1078 L 690,1077 L 690,1058 L 689,1057 L 689,1038 L 688,1037 L 688,1025 L 687,1024 L 687,1019 L 686,1018 L 686,1014 L 685,1013 L 685,1010 L 684,1009 L 684,1007 L 683,1006 L 683,1005 L 682,1004 L 682,1003 L 681,1002 L 681,1001 L 680,1000 L 680,999 L 679,998 L 679,996 L 678,995 L 678,993 L 677,992 L 677,990 L 676,989 L 676,986 L 675,985 L 675,981 L 674,980 L 674,977 L 673,976 L 673,972 L 672,971 L 672,967 L 671,966 L 671,962 L 670,961 L 670,957 L 669,956 L 669,952 L 668,951 L 668,948 L 667,947 L 667,945 L 666,944 L 666,942 L 665,941 L 665,939 L 664,938 L 664,937 L 663,936 L 663,934 L 662,933 L 662,932 L 661,931 L 661,929 L 660,928 L 660,926 L 659,925 L 659,924 L 658,923 L 658,920 L 657,919 L 657,916 L 656,915 L 656,911 L 655,910 L 655,905 L 654,904 L 654,898 L 653,897 L 653,891 L 652,890 L 652,885 L 651,884 L 651,879 L 650,878 L 650,874 L 649,873 L 649,868 L 648,867 L 648,862 L 647,861 L 647,856 L 646,855 L 646,850 L 645,849 L 645,844 L 644,843 L 644,838 L 643,837 L 643,833 L 642,832 L 642,828 L 641,827 L 641,824 L 640,823 L 640,818 L 639,817 L 639,813 L 638,812 L 638,808 L 637,807 L 637,802 L 636,801 L 636,797 L 635,796 L 635,791 L 634,790 L 634,784 L 633,783 L 633,777 L 632,776 L 632,771 L 631,770 L 631,767 L 630,766 L 630,763 L 629,762 L 629,760 L 628,759 L 628,756 L 627,755 L 627,752 L 626,751 L 626,749 L 625,748 L 625,745 L 624,744 L 624,740 L 623,739 L 623,735 L 622,734 L 622,728 L 621,727 L 621,716 L 620,715 L 620,709 L 619,708 L 619,705 L 618,704 L 618,701 L 617,700 L 617,697 L 616,696 L 616,694 L 615,693 L 615,691 L 614,690 L 614,688 L 613,687 L 613,686 L 612,685 L 612,683 L 611,682 L 611,681 L 610,680 L 610,678 L 609,677 L 609,676 L 608,675 L 608,674 L 607,673 L 607,672 L 606,671 L 606,670 L 605,669 L 605,668 L 604,667 L 604,661 L 605,660 L 605,637 L 604,636 L 604,631 L 603,630 L 603,627 L 602,626 L 602,624 L 601,623 L 601,621 L 600,620 L 600,619 L 599,618 L 599,617 L 598,616 L 598,607 L 599,606 L 599,592 L 598,591 L 598,554 L 599,553 L 599,540 L 600,539 L 600,532 L 601,531 L 601,525 L 602,524 L 602,519 L 603,518 L 603,515 L 604,514 L 604,512 L 607,509 L 608,509 L 610,507 L 611,507 L 619,499 L 619,498 L 621,496 L 621,495 L 623,493 L 623,491 L 624,490 L 624,489 L 625,488 L 625,486 L 626,485 L 626,483 L 627,482 L 627,479 L 628,478 L 628,474 L 629,473 L 629,469 L 630,468 L 630,462 L 631,461 L 631,454 L 632,453 L 632,443 L 633,442 L 633,419 L 634,418 L 634,410 L 633,409 L 633,394 L 632,393 L 632,386 L 631,385 L 631,381 L 630,380 L 630,378 L 629,377 L 629,375 L 628,374 L 628,372 L 627,371 L 627,369 L 626,368 L 626,367 L 625,366 L 625,365 L 624,364 L 624,363 L 623,362 L 623,361 L 622,360 L 622,359 L 620,357 L 620,356 L 616,352 L 616,351 L 610,345 L 609,345 L 607,343 L 606,343 L 604,341 L 603,341 L 602,340 L 601,340 L 600,339 L 599,339 L 598,338 L 596,338 L 595,337 L 593,337 L 592,336 L 590,336 L 589,335 L 588,335 L 587,334 L 585,334 L 584,333 L 582,333 L 581,332 L 578,332 L 577,331 L 574,331 L 573,330 L 571,330 L 570,329 L 567,329 L 566,328 L 564,328 L 563,327 L 561,327 L 560,326 L 558,326 L 557,325 L 554,325 L 553,324 L 551,324 L 550,323 L 548,323 L 547,322 L 545,322 L 544,321 L 542,321 L 541,320 L 539,320 L 538,319 L 536,319 L 535,318 L 533,318 L 532,317 L 529,317 L 528,316 L 526,316 L 525,315 L 523,315 L 522,314 L 519,314 L 518,313 L 517,313 L 516,312 L 515,312 L 507,304 L 507,303 L 505,301 L 505,300 L 504,299 L 504,298 L 503,297 L 503,295 L 502,294 L 502,293 L 501,292 L 501,290 L 502,289 L 502,288 L 503,287 L 503,286 L 504,285 L 504,283 L 505,282 L 505,280 L 506,279 L 506,276 L 507,275 L 507,250 L 506,249 L 506,248 L 504,246 L 503,246 L 502,245 L 499,245 L 498,244 L 498,240 L 497,239 L 497,233 L 496,232 L 496,227 L 495,226 L 495,223 L 494,222 L 494,219 L 493,218 L 493,216 L 492,215 L 492,212 L 491,211 L 491,210 L 490,209 L 490,207 L 489,206 L 489,205 L 488,204 L 488,203 L 487,202 L 487,201 L 484,198 L 484,197 L 478,191 L 477,191 L 475,189 L 474,189 L 472,187 L 471,187 L 469,185 L 468,185 L 467,184 L 466,184 L 465,183 L 464,183 L 463,182 L 462,182 L 461,181 L 460,181 L 459,180 L 458,180 L 457,179 L 455,179 L 454,178 L 453,178 L 452,177 L 451,177 L 450,176 L 448,176 L 447,175 L 446,175 L 445,174 L 444,174 L 443,173 L 441,173 L 440,172 Z" fill="black" /></svg>